<?xml version="1.0" standalone="no"?><!DOCTYPE svg PUBLIC "-//W3C//DTD SVG 1.1//EN" "http://www.w3.org/Graphics/SVG/1.1/DTD/svg11.dtd"><svg t="1629427482158" class="icon" viewBox="0 0 1024 1024" version="1.1" xmlns="http://www.w3.org/2000/svg" p-id="2513" xmlns:xlink="http://www.w3.org/1999/xlink" width="200" height="200"><defs><style type="text/css"></style></defs><path d="M113.813927 1005.136408a63.987762 63.987762 0 0 1 0-90.478696L517.448732 511.982723 113.813927 109.307735A64.05175 64.05175 0 0 1 204.548574 18.829039l448.93814 447.914336a63.987762 63.987762 0 0 1 0 90.478696l-448.93814 447.914337a63.987762 63.987762 0 0 1-90.734647 0zM864.710318 1023.884822a63.987762 63.987762 0 0 0 63.987762-63.987762V64.068387a63.987762 63.987762 0 0 0-127.975524 0v895.828673a63.987762 63.987762 0 0 0 63.987762 63.987762z" p-id="2514" fill="#ffffff"></path></svg>