<?xml version="1.0" standalone="no"?><!DOCTYPE svg PUBLIC "-//W3C//DTD SVG 1.1//EN" "http://www.w3.org/Graphics/SVG/1.1/DTD/svg11.dtd"><svg t="1629427468874" class="icon" viewBox="0 0 1024 1024" version="1.1" xmlns="http://www.w3.org/2000/svg" p-id="2155" xmlns:xlink="http://www.w3.org/1999/xlink" width="200" height="200"><defs><style type="text/css"></style></defs><path d="M284.444444 0a170.666667 170.666667 0 0 0-170.666666 170.666667v682.666666a170.666667 170.666667 0 0 0 341.333333 0V170.666667a170.666667 170.666667 0 0 0-170.666667-170.666667z m56.888889 853.333333a56.888889 56.888889 0 0 1-113.777777 0V170.666667a56.888889 56.888889 0 0 1 113.777777 0v682.666666z m398.222223-853.333333a170.666667 170.666667 0 0 0-170.666667 170.666667v682.666666a170.666667 170.666667 0 0 0 341.333333 0V170.666667a170.666667 170.666667 0 0 0-170.666666-170.666667z m56.888888 853.333333a56.888889 56.888889 0 0 1-113.777777 0V170.666667a56.888889 56.888889 0 0 1 113.777777 0v682.666666z" p-id="2156" fill="#ffffff"></path></svg>