<?xml version="1.0" standalone="no"?><!DOCTYPE svg PUBLIC "-//W3C//DTD SVG 1.1//EN" "http://www.w3.org/Graphics/SVG/1.1/DTD/svg11.dtd"><svg t="1629427475930" class="icon" viewBox="0 0 1024 1024" version="1.1" xmlns="http://www.w3.org/2000/svg" p-id="2334" xmlns:xlink="http://www.w3.org/1999/xlink" width="200" height="200"><defs><style type="text/css"></style></defs><path d="M908.228868 18.737584a63.950798 63.950798 0 0 1 0 90.426428L505.786497 511.606383l402.442371 402.442371a63.950798 63.950798 0 1 1-90.426428 90.426428l-447.655585-447.655585a63.950798 63.950798 0 0 1 0-90.426428l447.655585-447.655585a63.950798 63.950798 0 0 1 90.426428 0zM159.556878 0a63.950798 63.950798 0 0 0-63.950798 63.950798v895.31117a63.950798 63.950798 0 0 0 127.901596 0V63.950798a63.950798 63.950798 0 0 0-63.950798-63.950798z" p-id="2335" fill="#ffffff"></path></svg>